<svg width="160" height="50" viewBox="0 0 160 50" fill="none" xmlns="http://www.w3.org/2000/svg">
<rect x="0.5" y="0.5" width="159" height="49" rx="7.5" fill="#F9F3F3" stroke="black"/>
<g clip-path="url(#clip0_1:63)">
<path d="M30.3563 26.4329C30.3438 24.3017 31.3094 22.6954 33.2594 21.5111C32.1687 19.9486 30.5187 19.0892 28.3438 18.9236C26.2844 18.7611 24.0312 20.1236 23.2062 20.1236C22.3344 20.1236 20.3406 18.9798 18.7719 18.9798C15.5344 19.0298 12.0938 21.5611 12.0938 26.7111C12.0938 28.2329 12.3719 29.8048 12.9281 31.4236C13.6719 33.5548 16.3531 38.7767 19.15 38.6923C20.6125 38.6579 21.6469 37.6548 23.55 37.6548C25.3969 37.6548 26.3531 38.6923 27.9844 38.6923C30.8062 38.6517 33.2313 33.9048 33.9375 31.7673C30.1531 29.9829 30.3563 26.5423 30.3563 26.4329ZM27.0719 16.9017C28.6562 15.0204 28.5125 13.3079 28.4656 12.6923C27.0656 12.7736 25.4469 13.6454 24.525 14.7173C23.5094 15.8673 22.9125 17.2892 23.0406 18.8923C24.5531 19.0079 25.9344 18.2298 27.0719 16.9017Z" fill="black"/>
</g>
<path d="M48.3203 23V11.625H51.5312C52.5208 11.625 53.3958 11.8438 54.1562 12.2812C54.9167 12.7188 55.5026 13.3411 55.9141 14.1484C56.3307 14.9557 56.5417 15.8828 56.5469 16.9297V17.6562C56.5469 18.7292 56.3385 19.6693 55.9219 20.4766C55.5104 21.2839 54.9193 21.9036 54.1484 22.3359C53.3828 22.7682 52.4896 22.9896 51.4688 23H48.3203ZM49.8203 12.8594V21.7734H51.3984C52.5547 21.7734 53.4531 21.4141 54.0938 20.6953C54.7396 19.9766 55.0625 18.9531 55.0625 17.625V16.9609C55.0625 15.6693 54.7578 14.6667 54.1484 13.9531C53.5443 13.2344 52.6849 12.8698 51.5703 12.8594H49.8203ZM58.2109 18.6953C58.2109 17.8672 58.3724 17.1224 58.6953 16.4609C59.0234 15.7995 59.4766 15.2891 60.0547 14.9297C60.638 14.5703 61.3021 14.3906 62.0469 14.3906C63.1979 14.3906 64.1276 14.7891 64.8359 15.5859C65.5495 16.3828 65.9062 17.4427 65.9062 18.7656V18.8672C65.9062 19.6901 65.7474 20.4297 65.4297 21.0859C65.1172 21.737 64.6667 22.2448 64.0781 22.6094C63.4948 22.974 62.8229 23.1562 62.0625 23.1562C60.9167 23.1562 59.987 22.7578 59.2734 21.9609C58.5651 21.1641 58.2109 20.1094 58.2109 18.7969V18.6953ZM59.6641 18.8672C59.6641 19.8047 59.8802 20.5573 60.3125 21.125C60.75 21.6927 61.3333 21.9766 62.0625 21.9766C62.7969 21.9766 63.3802 21.6901 63.8125 21.1172C64.2448 20.5391 64.4609 19.7318 64.4609 18.6953C64.4609 17.7682 64.2396 17.0182 63.7969 16.4453C63.3594 15.8672 62.776 15.5781 62.0469 15.5781C61.3333 15.5781 60.7578 15.862 60.3203 16.4297C59.8828 16.9974 59.6641 17.8099 59.6641 18.8672ZM75.2031 21.0078L76.8281 14.5469H78.2734L75.8125 23H74.6406L72.5859 16.5938L70.5859 23H69.4141L66.9609 14.5469H68.3984L70.0625 20.875L72.0312 14.5469H73.1953L75.2031 21.0078ZM81.1172 14.5469L81.1641 15.6094C81.8099 14.7969 82.6536 14.3906 83.6953 14.3906C85.4818 14.3906 86.3828 15.3984 86.3984 17.4141V23H84.9531V17.4062C84.9479 16.7969 84.8073 16.3464 84.5312 16.0547C84.2604 15.763 83.8359 15.6172 83.2578 15.6172C82.7891 15.6172 82.3776 15.7422 82.0234 15.9922C81.6693 16.2422 81.3932 16.5703 81.1953 16.9766V23H79.75V14.5469H81.1172ZM90.1484 23H88.7031V11H90.1484V23ZM92.0859 18.6953C92.0859 17.8672 92.2474 17.1224 92.5703 16.4609C92.8984 15.7995 93.3516 15.2891 93.9297 14.9297C94.513 14.5703 95.1771 14.3906 95.9219 14.3906C97.0729 14.3906 98.0026 14.7891 98.7109 15.5859C99.4245 16.3828 99.7812 17.4427 99.7812 18.7656V18.8672C99.7812 19.6901 99.6224 20.4297 99.3047 21.0859C98.9922 21.737 98.5417 22.2448 97.9531 22.6094C97.3698 22.974 96.6979 23.1562 95.9375 23.1562C94.7917 23.1562 93.862 22.7578 93.1484 21.9609C92.4401 21.1641 92.0859 20.1094 92.0859 18.7969V18.6953ZM93.5391 18.8672C93.5391 19.8047 93.7552 20.5573 94.1875 21.125C94.625 21.6927 95.2083 21.9766 95.9375 21.9766C96.6719 21.9766 97.2552 21.6901 97.6875 21.1172C98.1198 20.5391 98.3359 19.7318 98.3359 18.6953C98.3359 17.7682 98.1146 17.0182 97.6719 16.4453C97.2344 15.8672 96.651 15.5781 95.9219 15.5781C95.2083 15.5781 94.6328 15.862 94.1953 16.4297C93.7578 16.9974 93.5391 17.8099 93.5391 18.8672ZM106.812 23C106.729 22.8333 106.661 22.5365 106.609 22.1094C105.938 22.8073 105.135 23.1562 104.203 23.1562C103.37 23.1562 102.685 22.9219 102.148 22.4531C101.617 21.9792 101.352 21.3802 101.352 20.6562C101.352 19.776 101.685 19.0938 102.352 18.6094C103.023 18.1198 103.966 17.875 105.18 17.875H106.586V17.2109C106.586 16.7057 106.435 16.3047 106.133 16.0078C105.831 15.7057 105.385 15.5547 104.797 15.5547C104.281 15.5547 103.849 15.6849 103.5 15.9453C103.151 16.2057 102.977 16.5208 102.977 16.8906H101.523C101.523 16.4688 101.672 16.0625 101.969 15.6719C102.271 15.276 102.677 14.9635 103.188 14.7344C103.703 14.5052 104.268 14.3906 104.883 14.3906C105.857 14.3906 106.62 14.6354 107.172 15.125C107.724 15.6094 108.01 16.2786 108.031 17.1328V21.0234C108.031 21.7995 108.13 22.4167 108.328 22.875V23H106.812ZM104.414 21.8984C104.867 21.8984 105.297 21.7812 105.703 21.5469C106.109 21.3125 106.404 21.0078 106.586 20.6328V18.8984H105.453C103.682 18.8984 102.797 19.4167 102.797 20.4531C102.797 20.9062 102.948 21.2604 103.25 21.5156C103.552 21.7708 103.94 21.8984 104.414 21.8984ZM109.945 18.7031C109.945 17.4062 110.253 16.3646 110.867 15.5781C111.482 14.7865 112.286 14.3906 113.281 14.3906C114.271 14.3906 115.055 14.7292 115.633 15.4062V11H117.078V23H115.75L115.68 22.0938C115.102 22.8021 114.297 23.1562 113.266 23.1562C112.286 23.1562 111.487 22.7552 110.867 21.9531C110.253 21.151 109.945 20.1042 109.945 18.8125V18.7031ZM111.391 18.8672C111.391 19.8255 111.589 20.5755 111.984 21.1172C112.38 21.6589 112.927 21.9297 113.625 21.9297C114.542 21.9297 115.211 21.5182 115.633 20.6953V16.8125C115.201 16.0156 114.536 15.6172 113.641 15.6172C112.932 15.6172 112.38 15.8906 111.984 16.4375C111.589 16.9844 111.391 17.7943 111.391 18.8672ZM122.914 18.6953C122.914 17.8672 123.076 17.1224 123.398 16.4609C123.727 15.7995 124.18 15.2891 124.758 14.9297C125.341 14.5703 126.005 14.3906 126.75 14.3906C127.901 14.3906 128.831 14.7891 129.539 15.5859C130.253 16.3828 130.609 17.4427 130.609 18.7656V18.8672C130.609 19.6901 130.451 20.4297 130.133 21.0859C129.82 21.737 129.37 22.2448 128.781 22.6094C128.198 22.974 127.526 23.1562 126.766 23.1562C125.62 23.1562 124.69 22.7578 123.977 21.9609C123.268 21.1641 122.914 20.1094 122.914 18.7969V18.6953ZM124.367 18.8672C124.367 19.8047 124.583 20.5573 125.016 21.125C125.453 21.6927 126.036 21.9766 126.766 21.9766C127.5 21.9766 128.083 21.6901 128.516 21.1172C128.948 20.5391 129.164 19.7318 129.164 18.6953C129.164 17.7682 128.943 17.0182 128.5 16.4453C128.062 15.8672 127.479 15.5781 126.75 15.5781C126.036 15.5781 125.461 15.862 125.023 16.4297C124.586 16.9974 124.367 17.8099 124.367 18.8672ZM133.789 14.5469L133.836 15.6094C134.482 14.7969 135.326 14.3906 136.367 14.3906C138.154 14.3906 139.055 15.3984 139.07 17.4141V23H137.625V17.4062C137.62 16.7969 137.479 16.3464 137.203 16.0547C136.932 15.763 136.508 15.6172 135.93 15.6172C135.461 15.6172 135.049 15.7422 134.695 15.9922C134.341 16.2422 134.065 16.5703 133.867 16.9766V23H132.422V14.5469H133.789Z" fill="black" fill-opacity="0.8"/>
<path d="M53.5078 35.9492H49.9121L49.2285 38H47.0479L50.7529 28.0469H52.6533L56.3789 38H54.1982L53.5078 35.9492ZM50.4658 34.2881H52.9541L51.7031 30.5625L50.4658 34.2881ZM63.5088 34.3701C63.5088 35.5094 63.249 36.4232 62.7295 37.1113C62.2145 37.7949 61.5173 38.1367 60.6377 38.1367C59.8903 38.1367 59.2865 37.877 58.8262 37.3574V40.8438H56.8506V30.6035H58.6826L58.751 31.3281C59.2295 30.7539 59.8538 30.4668 60.624 30.4668C61.5355 30.4668 62.2441 30.804 62.75 31.4785C63.2559 32.153 63.5088 33.0827 63.5088 34.2676V34.3701ZM61.5332 34.2266C61.5332 33.5384 61.4102 33.0075 61.1641 32.6338C60.9225 32.2601 60.5693 32.0732 60.1045 32.0732C59.4847 32.0732 59.0586 32.3102 58.8262 32.7842V35.8125C59.0677 36.3001 59.4984 36.5439 60.1182 36.5439C61.0615 36.5439 61.5332 35.7715 61.5332 34.2266ZM71.3975 34.3701C71.3975 35.5094 71.1377 36.4232 70.6182 37.1113C70.1032 37.7949 69.4059 38.1367 68.5264 38.1367C67.779 38.1367 67.1751 37.877 66.7148 37.3574V40.8438H64.7393V30.6035H66.5713L66.6396 31.3281C67.1182 30.7539 67.7425 30.4668 68.5127 30.4668C69.4242 30.4668 70.1328 30.804 70.6387 31.4785C71.1445 32.153 71.3975 33.0827 71.3975 34.2676V34.3701ZM69.4219 34.2266C69.4219 33.5384 69.2988 33.0075 69.0527 32.6338C68.8112 32.2601 68.458 32.0732 67.9932 32.0732C67.3734 32.0732 66.9473 32.3102 66.7148 32.7842V35.8125C66.9564 36.3001 67.387 36.5439 68.0068 36.5439C68.9502 36.5439 69.4219 35.7715 69.4219 34.2266ZM81.4053 35.3887C81.4053 35.0013 81.2686 34.7051 80.9951 34.5C80.7217 34.2904 80.2295 34.0716 79.5186 33.8438C78.8076 33.6113 78.2448 33.3835 77.8301 33.1602C76.6999 32.5495 76.1348 31.7269 76.1348 30.6924C76.1348 30.1546 76.2852 29.6761 76.5859 29.2568C76.8913 28.833 77.3265 28.5026 77.8916 28.2656C78.4613 28.0286 79.0993 27.9102 79.8057 27.9102C80.5166 27.9102 81.1501 28.04 81.7061 28.2998C82.262 28.555 82.6927 28.9173 82.998 29.3867C83.3079 29.8561 83.4629 30.3893 83.4629 30.9863H81.4121C81.4121 30.5306 81.2686 30.1774 80.9814 29.9268C80.6943 29.6715 80.291 29.5439 79.7715 29.5439C79.2702 29.5439 78.8805 29.651 78.6025 29.8652C78.3245 30.0749 78.1855 30.3529 78.1855 30.6992C78.1855 31.0228 78.3473 31.2939 78.6709 31.5127C78.999 31.7314 79.4798 31.9365 80.1133 32.1279C81.2799 32.4788 82.1299 32.9141 82.6631 33.4336C83.1963 33.9531 83.4629 34.6003 83.4629 35.375C83.4629 36.2363 83.137 36.9131 82.4854 37.4053C81.8337 37.8929 80.9564 38.1367 79.8535 38.1367C79.0879 38.1367 78.3906 37.9977 77.7617 37.7197C77.1328 37.4372 76.652 37.0521 76.3193 36.5645C75.9912 36.0768 75.8271 35.5117 75.8271 34.8691H77.8848C77.8848 35.9674 78.541 36.5166 79.8535 36.5166C80.3411 36.5166 80.7217 36.4186 80.9951 36.2227C81.2686 36.0221 81.4053 35.7441 81.4053 35.3887ZM87.0928 28.7852V30.6035H88.3574V32.0527H87.0928V35.7441C87.0928 36.0176 87.1452 36.2135 87.25 36.332C87.3548 36.4505 87.5553 36.5098 87.8516 36.5098C88.0703 36.5098 88.264 36.4938 88.4326 36.4619V37.959C88.0452 38.0775 87.6465 38.1367 87.2363 38.1367C85.8509 38.1367 85.1445 37.4372 85.1172 36.0381V32.0527H84.0371V30.6035H85.1172V28.7852H87.0928ZM88.9453 34.2334C88.9453 33.4997 89.0866 32.8457 89.3691 32.2715C89.6517 31.6973 90.0573 31.2529 90.5859 30.9385C91.1191 30.624 91.7367 30.4668 92.4385 30.4668C93.4365 30.4668 94.25 30.7721 94.8789 31.3828C95.5124 31.9935 95.8656 32.8229 95.9385 33.8711L95.9521 34.377C95.9521 35.5117 95.6354 36.4232 95.002 37.1113C94.3685 37.7949 93.5186 38.1367 92.4521 38.1367C91.3857 38.1367 90.5335 37.7949 89.8955 37.1113C89.262 36.4277 88.9453 35.498 88.9453 34.3223V34.2334ZM90.9209 34.377C90.9209 35.0788 91.0531 35.6165 91.3174 35.9902C91.5817 36.3594 91.96 36.5439 92.4521 36.5439C92.9307 36.5439 93.3044 36.3617 93.5732 35.9971C93.8421 35.6279 93.9766 35.04 93.9766 34.2334C93.9766 33.5452 93.8421 33.012 93.5732 32.6338C93.3044 32.2555 92.9261 32.0664 92.4385 32.0664C91.9554 32.0664 91.5817 32.2555 91.3174 32.6338C91.0531 33.0075 90.9209 33.5885 90.9209 34.377ZM101.325 32.4561C101.056 32.4196 100.819 32.4014 100.614 32.4014C99.8669 32.4014 99.377 32.6543 99.1445 33.1602V38H97.1689V30.6035H99.0352L99.0898 31.4854C99.4863 30.8063 100.035 30.4668 100.737 30.4668C100.956 30.4668 101.161 30.4964 101.353 30.5557L101.325 32.4561ZM105.55 38.1367C104.465 38.1367 103.581 37.804 102.897 37.1387C102.218 36.4733 101.879 35.5869 101.879 34.4795V34.2881C101.879 33.5452 102.022 32.8822 102.31 32.2988C102.597 31.7109 103.002 31.2598 103.526 30.9453C104.055 30.6263 104.657 30.4668 105.331 30.4668C106.343 30.4668 107.138 30.7858 107.717 31.4238C108.3 32.0618 108.592 32.9665 108.592 34.1377V34.9443H103.882C103.946 35.4274 104.137 35.8148 104.456 36.1064C104.78 36.3981 105.188 36.5439 105.68 36.5439C106.441 36.5439 107.035 36.2682 107.464 35.7168L108.435 36.8037C108.138 37.223 107.737 37.5511 107.231 37.7881C106.726 38.0205 106.165 38.1367 105.55 38.1367ZM105.324 32.0664C104.932 32.0664 104.613 32.1986 104.367 32.4629C104.126 32.7272 103.971 33.1055 103.902 33.5977H106.65V33.4404C106.641 33.0029 106.523 32.6657 106.295 32.4287C106.067 32.1872 105.743 32.0664 105.324 32.0664Z" fill="black"/>
<defs>
<clipPath id="clip0_1:63">
<rect width="32" height="32" fill="white" transform="translate(7 6)"/>
</clipPath>
</defs>
</svg>
