<svg width="226" height="215" viewBox="0 0 226 215" fill="none" xmlns="http://www.w3.org/2000/svg">
<ellipse cx="112.809" cy="107.5" rx="112.619" ry="107.5" fill="#CCAFEB"/>
<path d="M36.9487 164.222C37.5349 164.368 38.1578 164.287 38.6822 163.997C39.2066 163.707 39.5903 163.232 39.7502 162.673C44.4652 145.864 63.6275 141.507 75.0808 138.9C77.9511 138.249 80.217 137.732 81.691 137.124C94.7375 131.714 98.9901 123.009 100.263 116.658C100.338 116.28 100.308 115.89 100.176 115.527C100.043 115.164 99.8126 114.84 99.5074 114.589C92.7141 108.986 86.9828 100.575 83.3665 90.8996C83.2644 90.6221 83.104 90.3675 82.895 90.1516C78.1113 85.1827 75.3647 79.9295 75.3647 75.7435C75.3647 73.2985 76.3306 71.6582 78.505 70.4203C78.8307 70.2343 79.1029 69.9738 79.297 69.6623C79.4912 69.3507 79.6013 68.998 79.6173 68.6357C80.629 46.3544 97.2369 28.8145 117.608 28.7008L118.097 28.7314C138.569 29.0026 155.071 46.9186 155.662 69.5149C155.67 69.8238 155.747 70.1274 155.888 70.4057C156.028 70.684 156.229 70.9305 156.477 71.1289C157.91 72.288 158.578 73.7577 158.578 75.7523C158.578 79.2559 156.623 83.5643 153.08 87.8771C152.911 88.0846 152.781 88.3184 152.696 88.5682C149.033 99.6608 142.46 109.454 134.669 115.447C134.346 115.696 134.1 116.024 133.956 116.396C133.813 116.768 133.777 117.17 133.854 117.559C135.126 123.906 139.379 132.606 152.426 138.025C153.968 138.664 156.362 139.163 159.397 139.788C170.736 142.133 189.711 146.065 194.366 162.673C194.444 162.951 194.579 163.211 194.762 163.438C194.946 163.666 195.174 163.857 195.435 164.001C195.695 164.144 195.983 164.237 196.281 164.274C196.579 164.311 196.882 164.292 197.172 164.217C197.463 164.143 197.735 164.014 197.973 163.839C198.212 163.664 198.412 163.445 198.562 163.196C198.712 162.947 198.809 162.673 198.848 162.388C198.887 162.103 198.867 161.813 198.788 161.536C193.41 142.347 171.913 137.899 160.368 135.51C157.69 134.955 155.378 134.478 154.252 134.006C145.738 130.472 140.491 125.087 138.638 117.975C146.543 111.488 153.158 101.48 156.939 90.2566C160.954 85.2702 163.16 80.1351 163.16 75.7479C163.16 72.8217 162.171 70.381 160.212 68.4739C159.123 43.9618 140.816 24.6591 118.097 24.3486L117.415 24.3398C95.1082 24.4536 76.7242 43.2488 75.1175 67.3366C72.2518 69.3487 70.7961 72.1699 70.7961 75.7523C70.7961 80.9268 73.8586 87.116 79.2191 92.7935C82.9224 102.517 88.6629 111.06 95.4973 117.039C93.6525 124.177 88.4019 129.579 79.8691 133.118C78.7659 133.577 76.5686 134.08 74.0234 134.657C62.3915 137.299 40.7482 142.22 35.3282 161.545C35.1716 162.105 35.2544 162.702 35.5583 163.204C35.8622 163.706 36.3623 164.072 36.9487 164.222Z" fill="black"/>
</svg>
