<svg width="154" height="48" viewBox="0 0 154 48" fill="none" xmlns="http://www.w3.org/2000/svg">
<rect x="0.5" y="0.5" width="153" height="47" rx="7.5" fill="black" stroke="white"/>
<path d="M27.6995 22.7597L31.2725 18.9402L19.7317 12.0065C18.9669 11.5648 18.2503 11.5028 17.622 11.9859L27.6995 22.7597ZM31.8815 27.2314L35.5959 24.9981C36.3209 24.5641 36.7185 23.9493 36.7185 23.2673C36.7185 22.5866 36.3209 21.9705 35.5971 21.5365L32.2344 19.5176L28.4486 23.5631L31.8815 27.2314ZM17.0009 12.9249C16.9236 13.1794 16.8801 13.4635 16.8801 13.7748V32.7688C16.8801 33.2609 16.9816 33.6846 17.1652 34.0217L26.9491 23.5618L17.0009 12.9249ZM27.6995 24.3626L17.97 34.7644C18.1561 34.8406 18.3566 34.8807 18.5681 34.8807C18.9451 34.8807 19.3378 34.7618 19.7378 34.5242L30.9209 27.8114L27.6995 24.3626Z" fill="white"/>
<path d="M55.506 9.202C56.514 9.202 57.426 9.34 58.242 9.616C59.07 9.892 59.484 10.162 59.484 10.426V12.478C59.484 12.562 59.454 12.646 59.394 12.73C59.346 12.802 59.28 12.838 59.196 12.838C58.992 12.838 58.86 12.718 58.8 12.478C58.584 11.674 58.182 11.044 57.594 10.588C57.006 10.132 56.31 9.904 55.506 9.904C54.018 9.904 52.83 10.402 51.942 11.398C51.066 12.394 50.628 13.66 50.628 15.196C50.628 16.204 50.826 17.176 51.222 18.112C51.618 19.048 52.182 19.822 52.914 20.434C53.658 21.034 54.474 21.334 55.362 21.334C56.262 21.334 57.018 21.154 57.63 20.794C58.254 20.422 58.566 20.032 58.566 19.624V17.392C58.566 16.936 58.296 16.696 57.756 16.672L56.784 16.618C56.652 16.618 56.586 16.54 56.586 16.384C56.586 16.216 56.664 16.132 56.82 16.132L59.268 16.204L61.05 16.132C61.218 16.132 61.302 16.204 61.302 16.348C61.302 16.516 61.23 16.606 61.086 16.618L60.78 16.672C60.3 16.756 60.06 16.996 60.06 17.392V20.866L60.168 21.874C60.192 22.09 60.102 22.198 59.898 22.198C59.766 22.198 59.658 22.12 59.574 21.964C59.382 21.532 59.064 21.316 58.62 21.316C58.524 21.316 58.344 21.388 58.08 21.532C57.264 21.976 56.304 22.198 55.2 22.198C53.328 22.198 51.81 21.58 50.646 20.344C49.482 19.108 48.9 17.56 48.9 15.7C48.9 13.828 49.512 12.28 50.736 11.056C51.96 9.82 53.55 9.202 55.506 9.202ZM70.6042 16.312C70.6042 17.032 70.2802 17.392 69.6322 17.392H64.4482C64.3042 17.392 64.2322 17.494 64.2322 17.698C64.2562 18.802 64.5742 19.678 65.1862 20.326C65.8102 20.962 66.5962 21.28 67.5442 21.28C68.5042 21.28 69.2122 21.094 69.6682 20.722C69.8242 20.602 69.9682 20.608 70.1002 20.74C70.2322 20.872 70.2142 21.022 70.0462 21.19C69.3742 21.862 68.4502 22.198 67.2742 22.198C65.7982 22.198 64.6402 21.778 63.8002 20.938C62.9722 20.086 62.5582 18.904 62.5582 17.392C62.5582 16.168 62.9722 15.1 63.8002 14.188C64.6282 13.264 65.6122 12.802 66.7522 12.802C67.9042 12.802 68.8342 13.138 69.5422 13.81C70.2502 14.47 70.6042 15.304 70.6042 16.312ZM68.9842 16.078C68.9842 15.358 68.7862 14.752 68.3902 14.26C68.0062 13.756 67.4602 13.504 66.7522 13.504C66.0562 13.504 65.4622 13.792 64.9702 14.368C64.4782 14.944 64.2322 15.604 64.2322 16.348C64.2322 16.54 64.3102 16.636 64.4662 16.636H68.4262C68.7982 16.636 68.9842 16.45 68.9842 16.078ZM77.8941 21.136C77.8941 21.364 77.6481 21.598 77.1561 21.838C76.6761 22.078 76.1901 22.198 75.6981 22.198C74.8221 22.198 74.1921 21.994 73.8081 21.586C73.4361 21.166 73.2501 20.47 73.2501 19.498V14.098C73.2501 13.966 73.1721 13.9 73.0161 13.9H71.9181C71.8581 13.9 71.8041 13.882 71.7561 13.846C71.7081 13.798 71.6901 13.744 71.7021 13.684L71.7561 13.216C71.7801 13.072 71.8521 13 71.9721 13H73.0521C73.1601 13 73.2141 12.934 73.2141 12.802L73.3761 10.3C73.3881 10.072 73.5021 9.958 73.7181 9.958C73.8861 9.958 74.0001 10.048 74.0601 10.228L74.6541 12.766C74.6901 12.922 74.7801 13 74.9241 13H77.6061C77.7741 13 77.8401 13.072 77.8041 13.216L77.7501 13.684C77.7261 13.828 77.6541 13.9 77.5341 13.9H74.7981C74.7021 13.9 74.6541 13.966 74.6541 14.098V19.678C74.6541 20.806 75.0921 21.37 75.9681 21.37C76.3641 21.37 76.7541 21.298 77.1381 21.154L77.7141 20.938C77.8341 20.938 77.8941 21.004 77.8941 21.136ZM86.4044 21.586C86.5484 21.598 86.6204 21.682 86.6204 21.838C86.6204 21.994 86.5304 22.072 86.3504 22.072L84.6404 22L82.6964 22.072C82.5164 22.072 82.4264 21.994 82.4264 21.838C82.4264 21.682 82.4984 21.598 82.6424 21.586L83.1464 21.55C83.3864 21.526 83.5844 21.454 83.7404 21.334C83.8964 21.202 83.9744 21.028 83.9744 20.812V14.224C83.9744 13.984 83.9204 13.822 83.8124 13.738C83.7164 13.642 83.5544 13.594 83.3264 13.594H82.7144C82.5584 13.594 82.4804 13.516 82.4804 13.36C82.4804 13.204 82.5584 13.114 82.7144 13.09L85.0544 12.802C85.2704 12.778 85.3784 12.916 85.3784 13.216V20.812C85.3784 21.244 85.6184 21.49 86.0984 21.55L86.4044 21.586ZM83.9024 10.084C83.7464 9.928 83.6684 9.73 83.6684 9.49C83.6684 9.25 83.7464 9.052 83.9024 8.896C84.0704 8.74 84.2744 8.662 84.5144 8.662C84.7544 8.662 84.9584 8.74 85.1264 8.896C85.2944 9.052 85.3784 9.25 85.3784 9.49C85.3784 9.73 85.2944 9.928 85.1264 10.084C84.9584 10.24 84.7544 10.318 84.5144 10.318C84.2744 10.318 84.0704 10.24 83.9024 10.084ZM93.732 21.136C93.732 21.364 93.486 21.598 92.994 21.838C92.514 22.078 92.028 22.198 91.536 22.198C90.66 22.198 90.03 21.994 89.646 21.586C89.274 21.166 89.088 20.47 89.088 19.498V14.098C89.088 13.966 89.01 13.9 88.854 13.9H87.756C87.696 13.9 87.642 13.882 87.594 13.846C87.546 13.798 87.528 13.744 87.54 13.684L87.594 13.216C87.618 13.072 87.69 13 87.81 13H88.89C88.998 13 89.052 12.934 89.052 12.802L89.214 10.3C89.226 10.072 89.34 9.958 89.556 9.958C89.724 9.958 89.838 10.048 89.898 10.228L90.492 12.766C90.528 12.922 90.618 13 90.762 13H93.444C93.612 13 93.678 13.072 93.642 13.216L93.588 13.684C93.564 13.828 93.492 13.9 93.372 13.9H90.636C90.54 13.9 90.492 13.966 90.492 14.098V19.678C90.492 20.806 90.93 21.37 91.806 21.37C92.202 21.37 92.592 21.298 92.976 21.154L93.552 20.938C93.672 20.938 93.732 21.004 93.732 21.136Z" fill="white"/>
<path d="M56.7637 39.7422C56.3945 40.1842 55.8727 40.5283 55.1982 40.7744C54.5238 41.016 53.7764 41.1367 52.9561 41.1367C52.0947 41.1367 51.3382 40.9499 50.6865 40.5762C50.0394 40.1979 49.5381 39.651 49.1826 38.9355C48.8317 38.2201 48.6517 37.3792 48.6426 36.4131V35.7363C48.6426 34.7428 48.8089 33.8838 49.1416 33.1592C49.4788 32.43 49.9619 31.874 50.5908 31.4912C51.2243 31.1038 51.9648 30.9102 52.8125 30.9102C53.9928 30.9102 54.9157 31.1927 55.5811 31.7578C56.2464 32.3184 56.6406 33.1364 56.7637 34.2119H54.7676C54.6764 33.6423 54.4736 33.2253 54.1592 32.9609C53.8493 32.6966 53.4209 32.5645 52.874 32.5645C52.1768 32.5645 51.6458 32.8265 51.2812 33.3506C50.9167 33.8747 50.7321 34.654 50.7275 35.6885V36.3242C50.7275 37.3678 50.9258 38.1562 51.3223 38.6895C51.7188 39.2227 52.2998 39.4893 53.0654 39.4893C53.8356 39.4893 54.3848 39.3252 54.7129 38.9971V37.2812H52.8467V35.7705H56.7637V39.7422ZM57.9941 37.2334C57.9941 36.4997 58.1354 35.8457 58.418 35.2715C58.7005 34.6973 59.1061 34.2529 59.6348 33.9385C60.168 33.624 60.7855 33.4668 61.4873 33.4668C62.4854 33.4668 63.2988 33.7721 63.9277 34.3828C64.5612 34.9935 64.9144 35.8229 64.9873 36.8711L65.001 37.377C65.001 38.5117 64.6842 39.4232 64.0508 40.1113C63.4173 40.7949 62.5674 41.1367 61.501 41.1367C60.4346 41.1367 59.5824 40.7949 58.9443 40.1113C58.3109 39.4277 57.9941 38.498 57.9941 37.3223V37.2334ZM59.9697 37.377C59.9697 38.0788 60.1019 38.6165 60.3662 38.9902C60.6305 39.3594 61.0088 39.5439 61.501 39.5439C61.9795 39.5439 62.3532 39.3617 62.6221 38.9971C62.891 38.6279 63.0254 38.04 63.0254 37.2334C63.0254 36.5452 62.891 36.012 62.6221 35.6338C62.3532 35.2555 61.9749 35.0664 61.4873 35.0664C61.0042 35.0664 60.6305 35.2555 60.3662 35.6338C60.1019 36.0075 59.9697 36.5885 59.9697 37.377ZM65.9102 37.2334C65.9102 36.4997 66.0514 35.8457 66.334 35.2715C66.6165 34.6973 67.0221 34.2529 67.5508 33.9385C68.084 33.624 68.7015 33.4668 69.4033 33.4668C70.4014 33.4668 71.2148 33.7721 71.8438 34.3828C72.4772 34.9935 72.8304 35.8229 72.9033 36.8711L72.917 37.377C72.917 38.5117 72.6003 39.4232 71.9668 40.1113C71.3333 40.7949 70.4834 41.1367 69.417 41.1367C68.3506 41.1367 67.4984 40.7949 66.8604 40.1113C66.2269 39.4277 65.9102 38.498 65.9102 37.3223V37.2334ZM67.8857 37.377C67.8857 38.0788 68.0179 38.6165 68.2822 38.9902C68.5465 39.3594 68.9248 39.5439 69.417 39.5439C69.8955 39.5439 70.2692 39.3617 70.5381 38.9971C70.807 38.6279 70.9414 38.04 70.9414 37.2334C70.9414 36.5452 70.807 36.012 70.5381 35.6338C70.2692 35.2555 69.891 35.0664 69.4033 35.0664C68.9202 35.0664 68.5465 35.2555 68.2822 35.6338C68.0179 36.0075 67.8857 36.5885 67.8857 37.377ZM73.8467 37.2471C73.8467 36.1123 74.1156 35.1986 74.6533 34.5059C75.1956 33.8132 75.9248 33.4668 76.8408 33.4668C77.652 33.4668 78.2832 33.7448 78.7344 34.3008L78.8164 33.6035H80.6074V40.7539C80.6074 41.401 80.4593 41.9639 80.1631 42.4424C79.8714 42.9209 79.459 43.2855 78.9258 43.5361C78.3926 43.7868 77.7682 43.9121 77.0527 43.9121C76.5104 43.9121 75.9818 43.8027 75.4668 43.584C74.9518 43.3698 74.5622 43.0918 74.2979 42.75L75.1729 41.5469C75.665 42.0983 76.262 42.374 76.9639 42.374C77.488 42.374 77.8958 42.2327 78.1875 41.9502C78.4792 41.6722 78.625 41.2757 78.625 40.7607V40.3643C78.1693 40.8792 77.57 41.1367 76.8271 41.1367C75.9385 41.1367 75.2184 40.7904 74.667 40.0977C74.1201 39.4004 73.8467 38.4775 73.8467 37.3291V37.2471ZM75.8223 37.3906C75.8223 38.0605 75.9567 38.5869 76.2256 38.9697C76.4945 39.348 76.8636 39.5371 77.333 39.5371C77.9346 39.5371 78.3652 39.3115 78.625 38.8604V35.75C78.3607 35.2988 77.9346 35.0732 77.3467 35.0732C76.8727 35.0732 76.499 35.2669 76.2256 35.6543C75.9567 36.0417 75.8223 36.6204 75.8223 37.3906ZM84.2168 41H82.2344V30.5H84.2168V41ZM89.2549 41.1367C88.1702 41.1367 87.2861 40.804 86.6025 40.1387C85.9235 39.4733 85.584 38.5869 85.584 37.4795V37.2881C85.584 36.5452 85.7275 35.8822 86.0146 35.2988C86.3018 34.7109 86.7074 34.2598 87.2314 33.9453C87.7601 33.6263 88.3617 33.4668 89.0361 33.4668C90.0479 33.4668 90.8431 33.7858 91.4219 34.4238C92.0052 35.0618 92.2969 35.9665 92.2969 37.1377V37.9443H87.5869C87.6507 38.4274 87.8421 38.8148 88.1611 39.1064C88.4847 39.3981 88.8926 39.5439 89.3848 39.5439C90.1458 39.5439 90.7406 39.2682 91.1689 38.7168L92.1396 39.8037C91.8434 40.223 91.4424 40.5511 90.9365 40.7881C90.4307 41.0205 89.8701 41.1367 89.2549 41.1367ZM89.0293 35.0664C88.6374 35.0664 88.3184 35.1986 88.0723 35.4629C87.8307 35.7272 87.6758 36.1055 87.6074 36.5977H90.3555V36.4404C90.3464 36.0029 90.2279 35.6657 90 35.4287C89.7721 35.1872 89.4486 35.0664 89.0293 35.0664ZM99.0918 37.4932V41H97.041V31.0469H100.924C101.671 31.0469 102.327 31.1836 102.893 31.457C103.462 31.7305 103.9 32.1201 104.205 32.626C104.51 33.1273 104.663 33.6992 104.663 34.3418C104.663 35.3171 104.328 36.0872 103.658 36.6523C102.993 37.2129 102.07 37.4932 100.89 37.4932H99.0918ZM99.0918 35.832H100.924C101.466 35.832 101.879 35.7044 102.161 35.4492C102.448 35.194 102.592 34.8294 102.592 34.3555C102.592 33.8678 102.448 33.4736 102.161 33.1729C101.874 32.8721 101.478 32.7171 100.972 32.708H99.0918V35.832ZM108.033 41H106.051V30.5H108.033V41ZM113.953 41C113.862 40.8223 113.796 40.6012 113.755 40.3369C113.276 40.8701 112.654 41.1367 111.889 41.1367C111.164 41.1367 110.562 40.9271 110.084 40.5078C109.61 40.0885 109.373 39.5599 109.373 38.9219C109.373 38.138 109.662 37.5365 110.241 37.1172C110.825 36.6979 111.665 36.486 112.764 36.4814H113.673V36.0576C113.673 35.7158 113.584 35.4424 113.406 35.2373C113.233 35.0322 112.957 34.9297 112.579 34.9297C112.246 34.9297 111.984 35.0094 111.793 35.1689C111.606 35.3285 111.513 35.5472 111.513 35.8252H109.537C109.537 35.3968 109.669 35.0003 109.934 34.6357C110.198 34.2712 110.572 33.9863 111.055 33.7812C111.538 33.5716 112.08 33.4668 112.682 33.4668C113.593 33.4668 114.315 33.6969 114.849 34.1572C115.386 34.613 115.655 35.2555 115.655 36.085V39.291C115.66 39.9928 115.758 40.5238 115.949 40.8838V41H113.953ZM112.319 39.626C112.611 39.626 112.88 39.5622 113.126 39.4346C113.372 39.3024 113.554 39.127 113.673 38.9082V37.6367H112.935C111.946 37.6367 111.419 37.9785 111.355 38.6621L111.349 38.7783C111.349 39.0244 111.435 39.2272 111.608 39.3867C111.782 39.5462 112.019 39.626 112.319 39.626ZM119.825 38.2041L121.192 33.6035H123.312L120.338 42.1484L120.174 42.5381C119.732 43.5042 119.003 43.9873 117.986 43.9873C117.699 43.9873 117.408 43.944 117.111 43.8574V42.3604L117.412 42.3672C117.786 42.3672 118.064 42.3102 118.246 42.1963C118.433 42.0824 118.579 41.8932 118.684 41.6289L118.916 41.0205L116.325 33.6035H118.451L119.825 38.2041Z" fill="white"/>
</svg>
