<svg width="83" height="86" viewBox="0 0 83 86" fill="none" xmlns="http://www.w3.org/2000/svg">
<path d="M70.55 0H12.45C5.5859 0 0 6.02566 0 13.4301V26.1037C0 30.8177 1.5853 35.1019 4.15 38.3968V80.5809C4.15 81.7682 4.58723 82.9069 5.36551 83.7464C6.14378 84.586 7.19935 85.0576 8.3 85.0576H41.5C42.6007 85.0576 43.6562 84.586 44.4345 83.7464C45.2128 82.9069 45.65 81.7682 45.65 80.5809V58.1973H62.25V80.5809C62.25 81.7682 62.6872 82.9069 63.4655 83.7464C64.2438 84.586 65.2994 85.0576 66.4 85.0576H74.7C75.8007 85.0576 76.8562 84.586 77.6345 83.7464C78.4128 82.9069 78.85 81.7682 78.85 80.5809V38.3923C81.4147 35.1019 83 30.8177 83 26.0993V13.4301C83 6.02566 77.4141 0 70.55 0ZM74.7 13.4301V26.1037C74.7 31.2072 71.1767 35.5586 66.8523 35.8048L66.4 35.8137C61.8226 35.8137 58.1 31.7981 58.1 26.8603V8.95343H70.55C72.8408 8.95343 74.7 10.9635 74.7 13.4301ZM33.2 26.8603V8.95343H49.8V26.8603C49.8 31.7981 46.0774 35.8137 41.5 35.8137C36.9226 35.8137 33.2 31.7981 33.2 26.8603ZM8.3 13.4301C8.3 10.9635 10.1592 8.95343 12.45 8.95343H24.9V26.8603C24.9 31.7981 21.1775 35.8137 16.6 35.8137L16.1476 35.8003C11.8233 35.5586 8.3 31.2072 8.3 26.1037V13.4301ZM33.2 62.674H16.6V49.2439H33.2V62.674Z" fill="#B592D4"/>
</svg>
