<svg width="50" height="50" viewBox="0 0 50 50" fill="none" xmlns="http://www.w3.org/2000/svg">
<path d="M43.75 31.25V26.5625C43.75 24.9049 43.0915 23.3152 41.9194 22.1431C40.7473 20.971 39.1576 20.3125 37.5 20.3125C35.8424 20.3125 34.2527 20.971 33.0806 22.1431C31.9085 23.3152 31.25 24.9049 31.25 26.5625V31.25C30.4215 31.2508 29.6271 31.5803 29.0412 32.1662C28.4553 32.7521 28.1258 33.5465 28.125 34.375V43.75C28.1258 44.5785 28.4553 45.3729 29.0412 45.9588C29.6271 46.5447 30.4215 46.8742 31.25 46.875H43.75C44.5785 46.8742 45.3729 46.5447 45.9588 45.9588C46.5447 45.3729 46.8742 44.5785 46.875 43.75V34.375C46.8742 33.5465 46.5447 32.7521 45.9588 32.1662C45.3729 31.5803 44.5785 31.2508 43.75 31.25ZM34.375 26.5625C34.375 25.7337 34.7042 24.9388 35.2903 24.3528C35.8763 23.7667 36.6712 23.4375 37.5 23.4375C38.3288 23.4375 39.1237 23.7667 39.7097 24.3528C40.2958 24.9388 40.625 25.7337 40.625 26.5625V31.25H34.375V26.5625ZM43.75 43.75H31.25V34.375H43.75V43.75Z" fill="#46127B"/>
<path d="M23.4375 42.1875H6.25C5.4212 42.1875 4.62634 41.8583 4.04029 41.2722C3.45424 40.6862 3.125 39.8913 3.125 39.0625V34.375C3.125 33.5462 3.45424 32.7513 4.04029 32.1653C4.62634 31.5792 5.4212 31.25 6.25 31.25H23.4375V34.375H6.25V39.0625H23.4375V42.1875Z" fill="#46127B"/>
<path d="M26.5625 28.125H12.5C11.6712 28.125 10.8763 27.7958 10.2903 27.2097C9.70424 26.6237 9.375 25.8288 9.375 25V20.3125C9.375 19.4837 9.70424 18.6888 10.2903 18.1028C10.8763 17.5167 11.6712 17.1875 12.5 17.1875H29.6875V20.3125H12.5V25H26.5625V28.125Z" fill="#46127B"/>
<path d="M34.375 14.0625H6.25C5.4212 14.0625 4.62634 13.7333 4.04029 13.1472C3.45424 12.5612 3.125 11.7663 3.125 10.9375V6.25C3.125 5.4212 3.45424 4.62634 4.04029 4.04029C4.62634 3.45424 5.4212 3.125 6.25 3.125H34.375C35.2038 3.125 35.9987 3.45424 36.5847 4.04029C37.1708 4.62634 37.5 5.4212 37.5 6.25V10.9375C37.5 11.7663 37.1708 12.5612 36.5847 13.1472C35.9987 13.7333 35.2038 14.0625 34.375 14.0625ZM6.25 10.9375H34.375V6.25H6.25V10.9375Z" fill="#46127B"/>
</svg>
