<svg width="19" height="12" viewBox="0 0 19 12" fill="none" xmlns="http://www.w3.org/2000/svg">
<path d="M2.91168 0.5322L9.50886 7.60339L16.106 0.5322C16.2635 0.363472 16.4503 0.22963 16.656 0.138315C16.8617 0.0470004 17.0821 1.77784e-09 17.3048 0C17.5274 -1.77783e-09 17.7478 0.0470004 17.9535 0.138315C18.1592 0.22963 18.3461 0.363472 18.5035 0.5322C18.6609 0.700927 18.7858 0.901237 18.871 1.12169C18.9562 1.34214 19 1.57842 19 1.81704C19 2.05566 18.9562 2.29194 18.871 2.51239C18.7858 2.73285 18.6609 2.93316 18.5035 3.10188L10.6991 11.467C10.5418 11.636 10.3549 11.77 10.1492 11.8615C9.94355 11.9529 9.72305 12 9.50036 12C9.27767 12 9.05717 11.9529 8.85148 11.8615C8.64579 11.77 8.45895 11.636 8.30165 11.467L0.497244 3.10188C0.339619 2.93328 0.214566 2.73301 0.129242 2.51254C0.0439184 2.29207 0 2.05573 0 1.81704C0 1.57836 0.0439184 1.34201 0.129242 1.12154C0.214566 0.901072 0.339619 0.700803 0.497244 0.5322C1.16036 -0.16034 2.24856 -0.178564 2.91168 0.5322Z" fill="black"/>
<path d="M2.91168 0.5322L9.50886 7.60339L16.106 0.5322C16.2635 0.363472 16.4503 0.22963 16.656 0.138315C16.8617 0.0470004 17.0821 1.77784e-09 17.3048 0C17.5274 -1.77783e-09 17.7478 0.0470004 17.9535 0.138315C18.1592 0.22963 18.3461 0.363472 18.5035 0.5322C18.6609 0.700927 18.7858 0.901237 18.871 1.12169C18.9562 1.34214 19 1.57842 19 1.81704C19 2.05566 18.9562 2.29194 18.871 2.51239C18.7858 2.73285 18.6609 2.93316 18.5035 3.10188L10.6991 11.467C10.5418 11.636 10.3549 11.77 10.1492 11.8615C9.94355 11.9529 9.72305 12 9.50036 12C9.27767 12 9.05717 11.9529 8.85148 11.8615C8.64579 11.77 8.45895 11.636 8.30165 11.467L0.497244 3.10188C0.339619 2.93328 0.214566 2.73301 0.129242 2.51254C0.0439184 2.29207 0 2.05573 0 1.81704C0 1.57836 0.0439184 1.34201 0.129242 1.12154C0.214566 0.901072 0.339619 0.700803 0.497244 0.5322C1.16036 -0.16034 2.24856 -0.178564 2.91168 0.5322Z" fill="black"/>
<path d="M2.91168 0.5322L9.50886 7.60339L16.106 0.5322C16.2635 0.363472 16.4503 0.22963 16.656 0.138315C16.8617 0.0470004 17.0821 1.77784e-09 17.3048 0C17.5274 -1.77783e-09 17.7478 0.0470004 17.9535 0.138315C18.1592 0.22963 18.3461 0.363472 18.5035 0.5322C18.6609 0.700927 18.7858 0.901237 18.871 1.12169C18.9562 1.34214 19 1.57842 19 1.81704C19 2.05566 18.9562 2.29194 18.871 2.51239C18.7858 2.73285 18.6609 2.93316 18.5035 3.10188L10.6991 11.467C10.5418 11.636 10.3549 11.77 10.1492 11.8615C9.94355 11.9529 9.72305 12 9.50036 12C9.27767 12 9.05717 11.9529 8.85148 11.8615C8.64579 11.77 8.45895 11.636 8.30165 11.467L0.497244 3.10188C0.339619 2.93328 0.214566 2.73301 0.129242 2.51254C0.0439184 2.29207 0 2.05573 0 1.81704C0 1.57836 0.0439184 1.34201 0.129242 1.12154C0.214566 0.901072 0.339619 0.700803 0.497244 0.5322C1.16036 -0.16034 2.24856 -0.178564 2.91168 0.5322Z" fill="black"/>
</svg>
