<svg width="7" height="5" viewBox="0 0 7 5" fill="none" xmlns="http://www.w3.org/2000/svg">
<path d="M3.45594 4.856C3.4859 4.90041 3.526 4.93672 3.57278 4.96181C3.61956 4.98689 3.67161 5 3.72445 5C3.7773 5 3.82935 4.98689 3.87613 4.96181C3.92291 4.93672 3.96301 4.90041 3.99297 4.856L6.93297 0.522964C6.967 0.472987 6.98695 0.414449 6.99067 0.353711C6.99438 0.292973 6.98171 0.232358 6.95403 0.178452C6.92635 0.124546 6.88472 0.0794107 6.83367 0.0479494C6.78262 0.0164882 6.72409 -9.54414e-05 6.66445 4.13189e-07H0.784463C0.724959 0.000251199 0.666647 0.0170481 0.615799 0.0485847C0.564951 0.0801213 0.523491 0.125204 0.495877 0.178986C0.468262 0.232767 0.455539 0.293212 0.459075 0.35382C0.46261 0.414428 0.482272 0.472905 0.515944 0.522964L3.45594 4.856Z" fill="black"/>
</svg>
