<svg width="50" height="50" viewBox="0 0 50 50" fill="none" xmlns="http://www.w3.org/2000/svg">
<g clip-path="url(#clip0_1:407)">
<path d="M0.860719 50C0.675835 49.9978 0.499162 49.9106 0.369093 49.7573C0.239023 49.604 0.166067 49.397 0.166076 49.1812V45.4667C0.166076 45.0146 0.480362 44.6479 0.867862 44.6479H3.27322V18.0667V18.0646C3.27343 17.8919 3.29694 17.7204 3.34286 17.5562L3.33929 17.5687C2.03302 17.1387 0.896266 16.1905 0.125005 14.8875L0.112505 14.8646C0.0385966 14.7319 -0.000503189 14.577 4.88937e-06 14.4187V0.820833C4.88937e-06 0.36875 0.314291 0.00208333 0.701791 0H48.9411C49.3286 0 49.6429 0.366667 49.6429 0.81875V14.4167C49.6426 14.5757 49.6029 14.7312 49.5286 14.8646L49.5304 14.8604C48.9824 15.7622 48.2655 16.5063 47.4341 17.0363C46.6026 17.5662 45.6786 17.868 44.7321 17.9187H44.7179V44.6458H46.6661C47.0536 44.6458 47.3679 45.0125 47.3679 45.4646V49.1792C47.3679 49.3963 47.2939 49.6046 47.1623 49.7581C47.0307 49.9117 46.8522 49.9979 46.6661 49.9979H46.6643L0.860719 50ZM41.9143 43.8229V18.0688C41.9143 17.9229 41.9304 17.7812 41.9607 17.6479L41.9589 17.6604C40.9368 17.3582 39.9969 16.759 39.2268 15.9187L39.2304 15.9229C37.92 17.2961 36.2051 18.0247 34.4446 17.9563H34.4554C32.6836 18.0208 30.9602 17.2764 29.6518 15.8812L29.6571 15.8875C28.4009 17.2243 26.7611 17.9638 25.0607 17.9604L24.8482 17.9563H24.8589C23.0874 18.0197 21.3643 17.2754 20.0554 15.8812L20.0607 15.8875C18.8038 17.2244 17.1634 17.9639 15.4625 17.9604L15.2339 17.9563H15.2446C13.473 18.0202 11.7498 17.2758 10.4411 15.8812L10.4464 15.8875C9.25653 17.1709 7.70743 17.9061 6.0875 17.9563H6.07858V43.825H8.14286V32.8812C8.14286 32.4292 8.45715 32.0625 8.84465 32.0625H17.15C17.5375 32.0625 17.8518 32.4292 17.8518 32.8812V43.825L41.9143 43.8229ZM34.4554 16.3188C35.1766 16.3493 35.8957 16.2112 36.5704 15.9124C37.2451 15.6136 37.8617 15.1603 38.3839 14.5792L38.3821 14.5812C38.3711 14.5245 38.3657 14.4665 38.3661 14.4083V1.63958H30.4911V14.4167L30.4929 14.4729L30.4911 14.5312V14.5292C31.5017 15.6808 32.8587 16.3247 34.2714 16.3229L34.4679 16.3188H34.4589H34.4554ZM15.2446 16.3188L15.4339 16.3229C16.9054 16.3229 18.2393 15.6396 19.2161 14.5292L19.2143 14.5312L19.2125 14.475L19.2143 14.4167V14.4187V1.64167H11.2714V14.4187L11.2732 14.475L11.2714 14.5333V14.5312C12.282 15.6829 13.6391 16.3268 15.0518 16.325L15.2518 16.3208H15.2429L15.2446 16.3188ZM20.375 38.1833C20.2828 38.1833 20.1916 38.1622 20.1064 38.121C20.0213 38.0799 19.9439 38.0196 19.8788 37.9435C19.8136 37.8675 19.7619 37.7772 19.7266 37.6779C19.6914 37.5786 19.6732 37.4721 19.6732 37.3646V23.1542C19.6732 22.7021 19.9875 22.3354 20.375 22.3354H40.0339C40.4214 22.3354 40.7357 22.7021 40.7357 23.1542V37.3667C40.7357 37.5838 40.6618 37.7921 40.5302 37.9456C40.3986 38.0992 40.2201 38.1854 40.0339 38.1854H40.0321L20.375 38.1833Z" fill="#46127B"/>
</g>
<defs>
<clipPath id="clip0_1:407">
<rect width="50" height="50" fill="white"/>
</clipPath>
</defs>
</svg>
