<svg width="30" height="30" viewBox="0 0 30 30" fill="none" xmlns="http://www.w3.org/2000/svg">
<path d="M29.7061 12.1871C29.7053 12.1871 29.7047 12.1879 29.7048 12.1886C29.8959 13.1923 30 14.2417 30 15.3368C30 23.9064 24.1471 30 15.3071 30C13.2968 30.0006 11.306 29.613 9.4486 28.8594C7.59118 28.1058 5.9035 27.0009 4.48198 25.6079C3.06046 24.2149 1.93297 22.5611 1.16394 20.741C0.394899 18.9208 -0.000612225 16.97 7.11324e-07 15C-0.000612225 13.03 0.394899 11.0792 1.16394 9.25904C1.93297 7.43888 3.06046 5.78506 4.48198 4.39206C5.9035 2.99906 7.59118 1.89419 9.4486 1.14058C11.306 0.386977 13.2968 -0.000599942 15.3071 6.97052e-07C18.7265 6.97052e-07 21.6808 1.02001 24.0995 2.74249C24.9215 3.32782 24.9371 4.50419 24.2164 5.21043L21.2349 8.13215C21.2325 8.1345 21.2284 8.1328 21.2284 8.12944C21.2284 8.12839 21.228 8.12738 21.2272 8.12667C19.6211 6.62802 17.583 5.8589 15.3071 5.8589C10.2566 5.8589 6.15145 10.0401 6.15145 14.9909C6.15145 19.9401 10.2566 24.1304 15.3071 24.1304C17.9019 24.1304 20.0276 23.3072 21.4998 21.9528C23.2423 20.3497 21.4702 18.0369 19.1024 18.0369H18.232C16.6166 18.0369 15.3071 16.7274 15.3071 15.112C15.3071 13.4966 16.6166 12.1871 18.232 12.1871H29.7061Z" fill="black"/>
</svg>
