<svg width="24" height="30" viewBox="0 0 24 30" fill="none" xmlns="http://www.w3.org/2000/svg">
<path d="M17.3333 22.5V18H8V12H17.3333V7.5L24 15L17.3333 22.5ZM14.6667 0C15.3739 0 16.0522 0.31607 16.5523 0.878679C17.0524 1.44129 17.3333 2.20435 17.3333 3V6H14.6667V3H2.66667V27H14.6667V24H17.3333V27C17.3333 27.7956 17.0524 28.5587 16.5523 29.1213C16.0522 29.6839 15.3739 30 14.6667 30H2.66667C1.95942 30 1.28115 29.6839 0.781048 29.1213C0.280951 28.5587 0 27.7956 0 27V3C0 2.20435 0.280951 1.44129 0.781048 0.878679C1.28115 0.31607 1.95942 0 2.66667 0H14.6667Z" fill="#46127B"/>
</svg>
