<svg width="52" height="52" viewBox="0 0 52 52" fill="none" xmlns="http://www.w3.org/2000/svg">
<g clip-path="url(#clip0_1:301)">
<path d="M14.6299 2.31738e-08C14.3659 -4.20947e-05 14.1051 0.0573275 13.8656 0.168131C13.626 0.278934 13.4134 0.440518 13.2425 0.64168L0.432322 15.73C0.20734 15.9948 0.062881 16.3186 0.0160171 16.6629C-0.0308468 17.0072 0.0218439 17.3577 0.167862 17.6731C0.313879 17.9884 0.54712 18.2554 0.840017 18.4423C1.13291 18.6293 1.47322 18.7286 1.82072 18.7283L20.053 18.7158C22.7133 14.7779 27.3142 12.2434 32.065 12.1066C33.7389 12.0513 35.4108 12.268 37.0154 12.7483C40.3226 13.7036 43.2205 15.8756 45.1705 18.6976L50.1807 18.6945C50.5279 18.6943 50.8679 18.5947 51.1604 18.4076C51.4528 18.2205 51.6857 17.9536 51.8314 17.6384C51.9772 17.3233 52.0297 16.973 51.9829 16.629C51.936 16.2849 51.7917 15.9614 51.567 15.6967L38.7865 0.64168C38.6156 0.440518 38.403 0.278934 38.1634 0.168131C37.9239 0.0573275 37.6631 -4.20947e-05 37.3991 2.31738e-08H14.6299ZM46.6099 21.2966C46.769 21.6679 46.9188 22.0438 47.0467 22.4281C47.8787 24.8435 48.0394 27.4602 47.5906 29.9681L50.1807 29.966C50.528 29.9659 50.8681 29.8664 51.1607 29.6792C51.4532 29.4921 51.6862 29.2251 51.8319 28.9099C51.9777 28.5946 52.0302 28.2442 51.9833 27.9001C51.9363 27.5559 51.7919 27.2324 51.567 26.9677L46.7529 21.2966H46.6099ZM10.0289 21.3221L5.25168 21.3262L0.432322 27.0015C0.207502 27.2664 0.0631799 27.59 0.0164048 27.9343C-0.0303702 28.2785 0.0223556 28.629 0.168354 28.9442C0.314352 29.2594 0.547523 29.5263 0.840323 29.7133C1.13312 29.9002 1.47332 29.9995 1.82072 29.9993L17.6199 29.9884C17.4133 28.7868 17.3508 27.5648 17.4337 26.3484L5.75504 26.3567L10.0294 21.3221H10.0289ZM40.7141 26.3333L24.5291 26.3437C24.4016 27.3528 24.4667 28.377 24.721 29.3618C24.773 29.5719 24.8359 29.7788 24.9056 29.9832L40.3371 29.9728C40.7299 28.8022 40.8587 27.5591 40.7141 26.3328V26.3333ZM10.0289 32.551L5.25168 32.5546L0.432322 38.2304C0.207502 38.4953 0.0631799 38.8189 0.0164048 39.1632C-0.0303702 39.5074 0.0223556 39.8578 0.168354 40.1731C0.314352 40.4883 0.547523 40.7552 0.840323 40.9421C1.13312 41.1291 1.47332 41.2284 1.82072 41.2282L26.3684 41.211C24.4724 40.3634 22.7648 39.1092 21.3644 37.5752L5.75504 37.5856L10.0294 32.551H10.0289ZM46.8595 32.6513C46.4033 33.8818 45.7867 35.0466 45.0254 36.1156L46.25 37.558H45.6479C46.5896 38.7639 47.5199 39.9781 48.447 41.196L50.1807 41.1949C50.528 41.1948 50.8681 41.0953 51.1607 40.9081C51.4532 40.721 51.6862 40.454 51.8319 40.1387C51.9777 39.8235 52.0302 39.4731 51.9833 39.129C51.9363 38.7848 51.7919 38.4613 51.567 38.1966L46.8595 32.6513Z" fill="#46127B"/>
<path d="M34.3871 14.2975C31.0477 13.8451 27.5361 14.6626 24.6527 16.8585C18.8859 21.2494 17.7643 29.5288 22.1557 35.2956C26.2663 40.6932 33.7725 41.9948 39.4457 38.5389L40.5288 39.9616C40.4234 40.2069 40.3737 40.4499 40.3833 40.6738C40.3928 40.8977 40.4612 41.0972 40.5839 41.2585L48.4463 51.5831C48.6711 51.8781 49.0632 52.0267 49.5363 51.9961C50.0095 51.9655 50.5249 51.7582 50.9694 51.4198C51.1895 51.2522 51.3856 51.0575 51.5464 50.8467C51.7072 50.6359 51.8296 50.4132 51.9066 50.1913C51.9836 49.9694 52.0136 49.7527 51.995 49.5535C51.9764 49.3543 51.9096 49.1766 51.7983 49.0304L43.9359 38.7058C43.813 38.5447 43.6389 38.4257 43.4256 38.357C43.2122 38.2883 42.9648 38.2716 42.7003 38.308L41.6167 36.8848C46.4579 32.3348 47.1999 24.7532 43.0898 19.3556C40.8939 16.4716 37.7265 14.7499 34.3871 14.2975ZM33.9971 17.1768C35.3297 17.3567 36.6135 17.7982 37.7748 18.4761C38.9361 19.154 39.952 20.0548 40.7639 21.1267C41.5808 22.1947 42.1787 23.4135 42.5233 24.7132C42.8678 26.0128 42.9523 27.3678 42.7719 28.7002C42.5914 30.0326 42.1496 31.3163 41.4717 32.4775C40.7938 33.6386 39.8932 34.6545 38.8217 35.4667C37.7537 36.2835 36.5349 36.8814 35.2353 37.2259C33.9357 37.5705 32.5808 37.6549 31.2484 37.4745C29.9161 37.294 28.6325 36.8522 27.4713 36.1743C26.3102 35.4965 25.2943 34.596 24.4821 33.5245C23.6653 32.4566 23.0674 31.2378 22.7228 29.9382C22.3782 28.6386 22.2937 27.2838 22.4741 25.9514C22.6546 24.619 23.0963 23.3354 23.7741 22.1743C24.4519 21.0131 25.3524 19.9972 26.4238 19.185C27.4915 18.3676 28.7102 17.7693 30.0099 17.4247C31.3097 17.08 32.6647 16.9958 33.9971 17.1768Z" fill="#46127B"/>
</g>
<defs>
<clipPath id="clip0_1:301">
<rect width="52" height="52" fill="white"/>
</clipPath>
</defs>
</svg>
