<svg width="28" height="25" viewBox="0 0 28 25" fill="none" xmlns="http://www.w3.org/2000/svg">
<path d="M19.8932 14.7876C20.1412 14.125 20.267 13.423 20.2645 12.7155C20.2645 11.1448 19.6405 9.63835 18.5298 8.52765C17.4191 7.41695 15.9127 6.79297 14.3419 6.79297C13.6432 6.79378 12.9502 6.91951 12.2958 7.16421L13.6858 8.59737C13.8971 8.56356 14.1107 8.54624 14.3246 8.54557C15.4353 8.54325 16.5017 8.98047 17.2911 9.76176C18.0805 10.543 18.5287 11.6049 18.5378 12.7155C18.5371 12.9295 18.5198 13.1431 18.486 13.3544L19.8932 14.7876Z" fill="black"/>
<path d="M27.7496 12.3095C24.8401 6.93085 19.7377 3.67603 14.0914 3.67603C12.5541 3.67963 11.0271 3.92733 9.5675 4.40987L10.9575 5.8085C11.9813 5.54391 13.034 5.4076 14.0914 5.40272C18.9521 5.40272 23.3724 8.11363 26.0057 12.6807C25.0397 14.3752 23.7592 15.8696 22.2328 17.0838L23.4588 18.3098C25.2253 16.8847 26.6923 15.1242 27.7755 13.1297L28 12.7153L27.7496 12.3095Z" fill="black"/>
<path d="M2.34981 2.1653L6.20034 6.01583C3.76649 7.5829 1.77733 9.75047 0.424544 12.3096L0.200073 12.7154L0.424544 13.1298C3.33403 18.5085 8.43641 21.7633 14.0827 21.7633C16.2865 21.7629 18.4618 21.2641 20.4456 20.3042L24.7623 24.621L26.2732 23.326L3.82614 0.878906L2.34981 2.1653ZM10.7675 10.5829L16.5087 16.3242C15.86 16.7257 15.1132 16.9408 14.3504 16.9458C13.796 16.9458 13.2472 16.8362 12.7354 16.6233C12.2235 16.4104 11.7589 16.0984 11.3681 15.7052C10.9774 15.312 10.6682 14.8455 10.4584 14.3324C10.2487 13.8193 10.1424 13.2697 10.1458 12.7154C10.1556 11.9613 10.3705 11.2241 10.7675 10.5829ZM9.5156 9.33109C8.70788 10.4702 8.3293 11.8584 8.44687 13.2498C8.56445 14.6413 9.17061 15.9462 10.158 16.9336C11.1454 17.9211 12.4504 18.5272 13.8418 18.6448C15.2333 18.7624 16.6215 18.3838 17.7606 17.5761L19.1419 18.9574C17.5428 19.641 15.8218 19.9934 14.0827 19.9934C9.22206 19.9934 4.80172 17.2825 2.16851 12.7154C3.4322 10.4778 5.25215 8.60432 7.4522 7.27632L9.5156 9.33109Z" fill="black"/>
</svg>
