<svg width="29" height="28" viewBox="0 0 29 28" fill="none" xmlns="http://www.w3.org/2000/svg">
<path fill-rule="evenodd" clip-rule="evenodd" d="M23.0952 16.656C22.7182 16.5015 22.3146 16.422 21.9072 16.422C21.5264 16.4003 21.1459 16.4696 20.7972 16.624C20.4955 16.7696 20.2076 16.9423 19.9372 17.14C19.674 17.331 19.4331 17.5511 19.2192 17.796C19.0112 18.036 18.8092 18.256 18.6112 18.454C18.4314 18.6358 18.2375 18.803 18.0312 18.954C17.8229 19.1032 17.5679 19.1726 17.3128 19.1495C17.0576 19.1263 16.8192 19.0122 16.6412 18.828C16.4211 18.6215 16.2024 18.4135 15.9852 18.204C15.7052 17.932 15.3612 17.604 14.9552 17.218C14.5303 16.815 14.1083 16.409 13.6892 16L12.3292 14.672C11.4942 13.8556 10.687 13.0111 9.9092 12.14C9.62984 11.8329 9.36873 11.5097 9.1272 11.172C8.9392 10.902 8.8452 10.704 8.8452 10.578C8.83358 10.3522 8.90549 10.1301 9.0472 9.954C9.1932 9.766 9.3672 9.574 9.5632 9.374C9.7632 9.178 9.9812 8.968 10.2192 8.75C10.4592 8.53 10.6792 8.296 10.8772 8.046C11.0732 7.796 11.2412 7.51 11.3772 7.186C11.5112 6.866 11.5792 6.5 11.5792 6.094C11.5792 5.2687 11.2536 4.47672 10.6732 3.89C10.2995 3.52321 9.94506 3.13736 9.6112 2.734C9.22962 2.27962 8.81732 1.85195 8.3772 1.454C7.94995 1.06301 7.48348 0.717176 6.9852 0.422C6.53265 0.148057 6.01419 0.0021966 5.4852 0C4.66059 0.000547667 3.86942 0.326069 3.2832 0.906C2.7412 1.448 2.2672 1.932 1.8612 2.36C1.47156 2.76524 1.12565 3.21035 0.829196 3.688C0.54189 4.16194 0.331292 4.67831 0.205196 5.218C0.0583858 5.88509 -0.0100772 6.56704 0.00119582 7.25C0.00119582 8.354 0.179196 9.5 0.533196 10.688C0.887196 11.874 1.3652 13.058 1.9692 14.234C2.5732 15.412 3.3092 16.568 4.1732 17.704C5.0372 18.838 5.9752 19.916 6.9852 20.938C7.9952 21.958 9.0692 22.902 10.2052 23.766C11.3392 24.63 12.5012 25.376 13.6892 26C14.8752 26.626 16.0692 27.114 17.2672 27.468C18.4022 27.813 19.581 27.9922 20.7672 28C21.4452 27.9996 22.1211 27.9259 22.7832 27.78C23.3288 27.6568 23.8509 27.4461 24.3292 27.156C24.7892 26.876 25.2292 26.532 25.6572 26.126C26.0852 25.718 26.5632 25.25 27.0952 24.718C27.6754 24.1312 28.001 23.3393 28.0012 22.514C27.9785 22.1632 27.91 21.8169 27.7972 21.484C27.6802 21.1353 27.5065 20.8082 27.2832 20.516C27.0498 20.2097 26.8043 19.9128 26.5472 19.626C26.2823 19.3293 26.0012 19.0476 25.7052 18.782C25.4193 18.5258 25.1327 18.2704 24.8452 18.016C24.5936 17.7942 24.3488 17.5647 24.1112 17.328C23.8215 17.0376 23.4758 16.809 23.0952 16.656ZM22.3612 25.828C21.8394 25.9534 21.3037 26.0112 20.7672 26C19.7389 25.9805 18.7184 25.8176 17.7352 25.516C16.635 25.1835 15.5721 24.7385 14.5632 24.188C12.3202 22.9598 10.2674 21.4123 8.4692 19.594C7.55519 18.6696 6.69446 17.6941 5.8912 16.672C5.11134 15.6839 4.4219 14.6276 3.8312 13.516C3.28064 12.4882 2.82991 11.4099 2.4852 10.296C2.17199 9.2949 2.00889 8.25292 2.0012 7.204C2.00069 6.67172 2.0638 6.1413 2.1892 5.624C2.3032 5.188 2.4752 4.796 2.7052 4.454C2.9332 4.11 3.2152 3.776 3.5472 3.454C3.8812 3.13 4.2612 2.754 4.6872 2.328C4.7909 2.22136 4.91545 2.13721 5.05308 2.08079C5.19071 2.02436 5.33848 1.99686 5.4872 2C5.6112 1.99 5.8032 2.072 6.0632 2.25C6.3232 2.428 6.6052 2.64 6.9072 2.89C7.5594 3.43402 8.16117 4.0358 8.7052 4.688C8.9552 4.988 9.1632 5.266 9.3292 5.516C9.4952 5.766 9.5792 5.958 9.5792 6.094C9.59716 6.32054 9.52451 6.54496 9.3772 6.718C9.2312 6.886 9.0572 7.078 8.8612 7.298C8.6612 7.516 8.4432 7.724 8.2052 7.922C7.9652 8.12 7.7452 8.354 7.5472 8.624C7.34845 8.89649 7.18075 9.1903 7.0472 9.5C6.90628 9.84227 6.83751 10.2099 6.8452 10.58C6.8552 11.006 6.9392 11.406 7.0952 11.78C7.2512 12.156 7.4752 12.49 7.7672 12.78L15.2192 20.234C15.5059 20.5276 15.8489 20.7603 16.2275 20.9184C16.6062 21.0764 17.0129 21.1566 17.4232 21.154C17.7985 21.1739 18.1732 21.1054 18.5172 20.954C19.118 20.6757 19.6551 20.2767 20.0952 19.782C20.3152 19.542 20.5152 19.322 20.7052 19.124C20.8912 18.928 21.0852 18.76 21.2832 18.624C21.4655 18.4942 21.6834 18.4237 21.9072 18.422C22.0532 18.422 22.2512 18.506 22.5012 18.672C22.7512 18.838 23.0272 19.052 23.3292 19.312C23.6312 19.572 23.9432 19.86 24.2672 20.172C24.5892 20.484 24.8772 20.796 25.1272 21.11C25.3752 21.422 25.5852 21.704 25.7512 21.954C25.9172 22.204 26.0012 22.394 26.0012 22.532C26.0027 22.6775 25.9743 22.8218 25.9179 22.9559C25.8615 23.0901 25.7782 23.2113 25.6732 23.312C25.2252 23.75 24.8452 24.132 24.5332 24.452C24.23 24.7672 23.8948 25.05 23.5332 25.296C23.1751 25.5377 22.7789 25.7175 22.3612 25.828ZM28.0012 1.408L18.7212 10.704H25.2972V12.704H15.2972V2.704H17.2972V9.28L26.5952 0L28.0012 1.406V1.408Z" fill="#46127B"/>
</svg>
