<svg width="71" height="74" viewBox="0 0 71 74" fill="none" xmlns="http://www.w3.org/2000/svg">
<path d="M29.8947 0L57.1662 8.38624C57.9268 8.61996 58.5916 9.08686 59.0635 9.71879C59.5355 10.3507 59.7898 11.1146 59.7895 11.8989V18.3909H67.2632C68.2542 18.3909 69.2047 18.7784 69.9055 19.4682C70.6063 20.158 71 21.0935 71 22.069V51.4944C71 52.4699 70.6063 53.4055 69.9055 54.0953C69.2047 54.7851 68.2542 55.1726 67.2632 55.1726L55.2305 55.1763C53.7844 57.0522 52.028 58.7073 49.9989 60.0683L29.8947 73.5635L9.79053 60.0719C6.77311 58.0469 4.30391 55.3271 2.59763 52.1488C0.891342 48.9706 -0.000378253 45.4302 1.20363e-07 41.8355V11.8989C0.000450686 11.1152 0.255176 10.3522 0.727048 9.72099C1.19892 9.0898 1.86327 8.62345 2.62326 8.38991L29.8947 0ZM29.8947 7.7021L7.47368 14.6023V41.8355C7.47315 44.0874 7.99778 46.3094 9.00715 48.3302C10.0165 50.3511 11.4837 52.1169 13.2957 53.4917L14.0019 53.9919L29.8947 64.6623L44.0275 55.1726H26.1579C25.1668 55.1726 24.2163 54.7851 23.5155 54.0953C22.8148 53.4055 22.4211 52.4699 22.4211 51.4944V22.069C22.4211 21.0935 22.8148 20.158 23.5155 19.4682C24.2163 18.7784 25.1668 18.3909 26.1579 18.3909H52.3158V14.6023L29.8947 7.7021ZM29.8947 36.7817V47.8163H63.5263V36.7817H29.8947ZM29.8947 29.4254H63.5263V25.7472H29.8947V29.4254Z" fill="#B592D4"/>
</svg>
