<svg width="59" height="66" viewBox="0 0 59 66" fill="none" xmlns="http://www.w3.org/2000/svg">
<path d="M20.692 43.8233L32.1416 32.703L20.0317 22.3057C19.7427 22.0577 19.5104 21.7597 19.348 21.429C19.1856 21.0982 19.0963 20.7411 19.0851 20.3781C19.074 20.015 19.1412 19.6531 19.2831 19.313C19.4249 18.9729 19.6385 18.6613 19.9117 18.396C20.1849 18.1306 20.5123 17.9168 20.8753 17.7666C21.2383 17.6164 21.6297 17.5328 22.0273 17.5206C22.4248 17.5084 22.8206 17.5678 23.1921 17.6955C23.5636 17.8231 23.9035 18.0165 24.1925 18.2646L38.5184 30.5645C38.8078 30.8124 39.0404 31.1102 39.203 31.441C39.3657 31.7718 39.4551 32.1289 39.4663 32.4921C39.4774 32.8553 39.4101 33.2173 39.268 33.5574C39.1259 33.8975 38.912 34.2091 38.6384 34.4742L25.0937 47.6294C24.8207 47.8951 24.4933 48.1092 24.1303 48.2597C23.7673 48.4101 23.3758 48.4938 22.9781 48.506C22.5805 48.5182 22.1846 48.4586 21.8131 48.3308C21.4415 48.2029 21.1016 48.0092 20.8129 47.7608C19.626 46.7147 19.5412 44.941 20.692 43.8233Z" fill="black"/>
<path d="M20.692 43.8233L32.1416 32.703L20.0317 22.3057C19.7427 22.0577 19.5104 21.7597 19.348 21.429C19.1856 21.0982 19.0963 20.7411 19.0851 20.3781C19.074 20.015 19.1412 19.6531 19.2831 19.313C19.4249 18.9729 19.6385 18.6613 19.9117 18.396C20.1849 18.1306 20.5123 17.9168 20.8753 17.7666C21.2383 17.6164 21.6297 17.5328 22.0273 17.5206C22.4248 17.5084 22.8206 17.5678 23.1921 17.6955C23.5636 17.8231 23.9035 18.0165 24.1925 18.2646L38.5184 30.5645C38.8078 30.8124 39.0404 31.1102 39.203 31.441C39.3657 31.7718 39.4551 32.1289 39.4663 32.4921C39.4774 32.8553 39.4101 33.2173 39.268 33.5574C39.1259 33.8975 38.912 34.2091 38.6384 34.4742L25.0937 47.6294C24.8207 47.8951 24.4933 48.1092 24.1303 48.2597C23.7673 48.4101 23.3758 48.4938 22.9781 48.506C22.5805 48.5182 22.1846 48.4586 21.8131 48.3308C21.4415 48.2029 21.1016 48.0092 20.8129 47.7608C19.626 46.7147 19.5412 44.941 20.692 43.8233Z" fill="black"/>
<path d="M20.692 43.8233L32.1416 32.703L20.0317 22.3057C19.7427 22.0577 19.5104 21.7597 19.348 21.429C19.1856 21.0982 19.0963 20.7411 19.0851 20.3781C19.074 20.015 19.1412 19.6531 19.2831 19.313C19.4249 18.9729 19.6385 18.6613 19.9117 18.396C20.1849 18.1306 20.5123 17.9168 20.8753 17.7666C21.2383 17.6164 21.6297 17.5328 22.0273 17.5206C22.4248 17.5084 22.8206 17.5678 23.1921 17.6955C23.5636 17.8231 23.9035 18.0165 24.1925 18.2646L38.5184 30.5645C38.8078 30.8124 39.0404 31.1102 39.203 31.441C39.3657 31.7718 39.4551 32.1289 39.4663 32.4921C39.4774 32.8553 39.4101 33.2173 39.268 33.5574C39.1259 33.8975 38.912 34.2091 38.6384 34.4742L25.0937 47.6294C24.8207 47.8951 24.4933 48.1092 24.1303 48.2597C23.7673 48.4101 23.3758 48.4938 22.9781 48.506C22.5805 48.5182 22.1846 48.4586 21.8131 48.3308C21.4415 48.2029 21.1016 48.0092 20.8129 47.7608C19.626 46.7147 19.5412 44.941 20.692 43.8233Z" fill="black"/>
<rect x="0.5" y="0.5" width="58" height="65" rx="7.5" stroke="black"/>
</svg>
