<svg width="70" height="67" viewBox="0 0 70 67" fill="none" xmlns="http://www.w3.org/2000/svg">
<path d="M9.5 0V9.5H0V15.8333H9.5V25.3333H15.8333V15.8333H25.3333V9.5H15.8333V0H9.5ZM28.5 9.5V19H19V28.5H9.5V60.1667C9.5 61.8464 10.1673 63.4573 11.355 64.645C12.5427 65.8327 14.1536 66.5 15.8333 66.5H60.1667C63.6817 66.5 66.5 63.6817 66.5 60.1667V57H38C36.3203 57 34.7094 56.3327 33.5217 55.145C32.3339 53.9573 31.6667 52.3464 31.6667 50.6667V25.3333C31.6667 23.6536 32.3339 22.0427 33.5217 20.855C34.7094 19.6673 36.3203 19 38 19H66.5V15.8333C66.5 14.1536 65.8327 12.5427 64.645 11.355C63.4573 10.1673 61.8464 9.5 60.1667 9.5H28.5ZM38 25.3333V50.6667H69.6667V25.3333H38ZM50.6667 33.25C53.295 33.25 55.4167 35.3717 55.4167 38C55.4167 40.6283 53.295 42.75 50.6667 42.75C48.0383 42.75 45.9167 40.6283 45.9167 38C45.9167 35.3717 48.0383 33.25 50.6667 33.25Z" fill="#B592D4"/>
</svg>
